<svg xmlns="http://www.w3.org/2000/svg" width="26" height="26" viewBox="0 0 26 26">
    <g fill="#FFF" fill-rule="nonzero">
        <path d="M13 25.5c6.904 0 12.5-5.596 12.5-12.5S19.904.5 13 .5.5 6.096.5 13 6.096 25.5 13 25.5zm0-1C6.649 24.5 1.5 19.351 1.5 13S6.649 1.5 13 1.5 24.5 6.649 24.5 13 19.351 24.5 13 24.5z" opacity=".7"/>
        <path d="M15.649 8.612L14.342 7.36 8.939 13.01l5.403 5.648 1.307-1.253-4.204-4.395 4.204-4.397zm-5.326 4.397l-.13-.137-.132.137.131.137.131-.137zm4.264-4.458l-.003-.135-.134.003-.215.224.138.131.214-.223zm-.137 9.047l.134.003.003-.135-.215-.224-.136.132.214.224z"/>
    </g>
</svg>
