<svg xmlns="http://www.w3.org/2000/svg" width="245" height="195" viewBox="0 0 245 195">
    <g fill="none" fill-rule="evenodd" transform="translate(0 6)">
        <path fill="#FFF" d="M104.781 72h38a3 3 0 0 1 3 3v14a3 3 0 0 1-3 3h-38a3 3 0 0 1-3-3V75a3 3 0 0 1 3-3z"/>
        <path fill="#004071" fill-rule="nonzero" d="M104.781 72h38a3 3 0 0 1 3 3v14a3 3 0 0 1-3 3h-38a3 3 0 0 1-3-3V75a3 3 0 0 1 3-3zm0 3v14h38V75h-38z"/>
        <ellipse cx="124.781" cy="46" fill="#FFF" rx="63" ry="33"/>
        <path fill="#004071" fill-rule="nonzero" d="M124.781 11c6.382 0 12.641.491 18.635 1.447 5.03.803 9.845 1.929 14.35 3.35.791.25 1.226 1.08.971 1.855-.255.775-1.103 1.201-1.894.952-4.359-1.376-9.027-2.467-13.911-3.246-5.833-.931-11.93-1.41-18.15-1.41-31.3 0-57.033 12.122-61.352 27.482C72.657 35.655 98.104 31 124.78 31c26.68 0 52.13 4.656 61.356 10.432a19.588 19.588 0 0 0-1.843-4.36 1.458 1.458 0 0 1 .583-2.005 1.522 1.522 0 0 1 2.047.571c1.884 3.316 2.857 6.8 2.857 10.362 0 19.576-29.212 35-65 35s-65-15.424-65-35 29.212-35 65-35zm61.352 39.57l-.25.153C176.454 56.427 151.222 61 124.782 61c-26.677 0-52.124-4.655-61.352-10.43 4.32 15.36 30.053 27.481 61.352 27.481 31.3 0 57.032-12.12 61.352-27.481zM124.78 33.943c-16.322 0-32.218 1.723-44.55 4.588-5.582 1.298-10.157 2.775-13.294 4.274-2.772 1.325-4.145 2.558-4.145 3.195s1.373 1.87 4.145 3.195c3.137 1.499 7.712 2.976 13.295 4.274 12.331 2.865 28.227 4.588 44.55 4.588 16.322 0 32.217-1.723 44.549-4.588 5.582-1.298 10.158-2.775 13.294-4.274 2.772-1.325 4.146-2.558 4.146-3.195s-1.374-1.87-4.146-3.195c-3.136-1.499-7.712-2.976-13.294-4.274-12.332-2.865-28.227-4.588-44.55-4.588zm58.126-3.774c.349.395.684.793 1.005 1.195a1.454 1.454 0 0 1-.259 2.07c-.655.501-1.6.388-2.113-.253-.29-.364-.593-.725-.91-1.083a1.453 1.453 0 0 1 .154-2.08 1.527 1.527 0 0 1 2.123.151zm-16.165-11.1c1.14.557 4.179 2.189 5.447 2.913 2.318 1.325 4.441 2.746 6.348 4.252.648.51.75 1.439.228 2.073a1.527 1.527 0 0 1-2.117.223c-1.786-1.41-3.785-2.749-5.976-4-1.216-.696-4.2-2.298-5.276-2.825a1.46 1.46 0 0 1-.673-1.978 1.52 1.52 0 0 1 2.02-.659zM122.781 91.5v16a1.5 1.5 0 0 0 3 0v-16a1.5 1.5 0 0 0-3 0zM34.055 51.34c2.143 0 3.876-1.75 3.876-3.904 0-2.153-1.733-3.903-3.876-3.903s-3.876 1.75-3.876 3.903c0 2.154 1.733 3.904 3.876 3.904zm0-2c-1.034 0-1.876-.85-1.876-1.904 0-1.053.842-1.903 1.876-1.903 1.034 0 1.876.85 1.876 1.903 0 1.054-.842 1.904-1.876 1.904z"/>
        <circle cx="45.975" cy="51.896" r="1" fill="#004071" fill-rule="nonzero" transform="rotate(53 45.975 51.896)"/>
        <path fill="#004071" fill-rule="nonzero" d="M17.96 70.508c2.976.39 4.637-.876 7.113-4.243l.351-.477c2.27-3.08 3.443-3.71 5.98-2.383 5.416 2.834 9.465 2.515 12.142-.38 1.808-1.956 2.695-4.606 3.206-7.957a1 1 0 1 0-1.977-.302c-.455 2.984-1.238 5.322-2.698 6.901-2.005 2.17-5.073 2.412-9.747-.034-3.666-1.918-5.732-.81-8.516 2.968l-.352.48c-2.074 2.82-3.238 3.706-5.242 3.444a1 1 0 0 0-.26 1.983zM30.342 25.138l-2.904 3.998a1 1 0 1 0 1.618 1.175l2.904-3.997a1 1 0 1 0-1.618-1.176z"/>
        <path fill="#004071" fill-rule="nonzero" d="M27.299 27.217l3.68 2.674a1 1 0 1 0 1.176-1.618l-3.68-2.674a1 1 0 0 0-1.176 1.618zM14.655 37.233l-4.041 3.308a1 1 0 0 0 1.266 1.548l4.042-3.308a1 1 0 1 0-1.267-1.548zM1.996 38.783l4.847-1.831a1 1 0 1 1 .707 1.87l-4.847 1.832a1 1 0 1 1-.707-1.87zM15.108 48.257l-4.846 1.832a1 1 0 1 1-.707-1.871l4.846-1.831a1 1 0 1 1 .707 1.87zM2.45 49.807L6.49 46.5a1 1 0 1 0-1.266-1.547l-4.042 3.307a1 1 0 0 0 1.266 1.548zM179.281 132h6c.829 0 1.5-.448 1.5-1s-.671-1-1.5-1h-6c-.828 0-1.5.448-1.5 1s.672 1 1.5 1z"/>
        <path fill="#004071" fill-rule="nonzero" d="M183.281 134v-6c0-.828-.448-1.5-1-1.5s-1 .672-1 1.5v6c0 .828.448 1.5 1 1.5s1-.672 1-1.5zM175.381 160.8a7 7 0 1 0 0-14 7 7 0 0 0 0 14zm0-2a5 5 0 1 1 0-10 5 5 0 0 1 0 10zM72.912 116.207L68.2 120.92a1.44 1.44 0 0 0 2.037 2.036l4.713-4.712a1.44 1.44 0 1 0-2.037-2.037zM59.24 116.207l4.712 4.713a1.44 1.44 0 0 1-2.036 2.036l-4.713-4.712a1.44 1.44 0 1 1 2.036-2.037zM72.912 133.953L68.2 129.24a1.44 1.44 0 1 1 2.037-2.036l4.713 4.712a1.44 1.44 0 0 1-2.037 2.037zM59.24 133.953l4.712-4.713a1.44 1.44 0 1 0-2.036-2.036l-4.713 4.712a1.44 1.44 0 0 0 2.036 2.037zM84.781 101.5v6c0 .828.448 1.5 1 1.5s1-.672 1-1.5v-6c0-.828-.448-1.5-1-1.5s-1 .672-1 1.5z"/>
        <path fill="#004071" fill-rule="nonzero" d="M82.781 105.5h6c.829 0 1.5-.448 1.5-1s-.671-1-1.5-1h-6c-.828 0-1.5.448-1.5 1s.672 1 1.5 1zM182.43.684c.18-.91 1.518-.913 1.702-.004.738 3.661 1.284 4.2 4.95 4.903.87.167.951 1.347.11 1.624-3.166 1.043-3.996 2.396-4.746 6.45l-.15.813c-.06.32-.111.59-.165.85-.183.907-1.517.906-1.7 0a52.948 52.948 0 0 1-.161-.835l-.147-.801c-.749-4.072-1.58-5.434-4.753-6.477-.841-.277-.76-1.458.111-1.624 3.669-.7 4.23-1.257 4.949-4.9zm-1.554 6.018c1.11.82 1.852 1.898 2.406 3.436.554-1.539 1.296-2.616 2.406-3.436-1.11-.485-1.853-1.14-2.404-2.136-.55.995-1.296 1.65-2.408 2.136z"/>
        <circle cx="124.281" cy="142.5" r="32.5" fill="#FFF"/>
        <path fill="#004071" fill-rule="nonzero" d="M124.281 108c19.054 0 34.5 15.446 34.5 34.5 0 19.054-15.446 34.5-34.5 34.5-19.054 0-34.5-15.446-34.5-34.5 0-19.054 15.446-34.5 34.5-34.5zm0 3.224c-17.273 0-31.276 14.003-31.276 31.276s14.003 31.276 31.276 31.276 31.276-14.003 31.276-31.276-14.003-31.276-31.276-31.276zm15.173 16.984c.575.62.574 1.569.022 2.188l-.11.112-9.933 9.2a5.858 5.858 0 0 1-8.328 7.716l-1.962 1.815a1.627 1.627 0 0 1-2.322-2.275l.11-.112 2.035-1.885a5.858 5.858 0 0 1 8.181-7.578l10.008-9.27a1.628 1.628 0 0 1 2.3.089zm-15.173 11.517a2.775 2.775 0 1 0 0 5.55 2.775 2.775 0 0 0 0-5.55zm-22.478-10.466a1.627 1.627 0 0 1 .653 2.207 23.236 23.236 0 0 0-.823 1.672 1.627 1.627 0 1 1-2.975-1.32c.286-.646.6-1.282.938-1.905a1.627 1.627 0 0 1 2.207-.654zm19.12-12.534a1.627 1.627 0 0 1-1.213 1.955c-5.554 1.302-10.486 4.22-14.08 8.273a1.627 1.627 0 1 1-2.436-2.16c4.044-4.56 9.568-7.827 15.774-9.282a1.627 1.627 0 0 1 1.955 1.214z"/>
        <g stroke="#004071" stroke-width="3">
            <path d="M48.544 19.49h9.737a2 2 0 0 1 2 2v27.455L46.761 22.4a2 2 0 0 1 1.783-2.908z"/>
            <path d="M48.544 72.51h9.737a2 2 0 0 0 2-2V43.054L46.761 69.6a2 2 0 0 0 1.783 2.908z"/>
        </g>
    </g>
</svg>
