<svg xmlns="http://www.w3.org/2000/svg" width="148" height="129" viewBox="0 0 148 129">
    <g fill="none" fill-rule="evenodd">
        <path fill="#004071" fill-rule="nonzero" d="M25.712 19.588l-3.87 3.87a1.182 1.182 0 0 0 1.673 1.671l3.87-3.869a1.182 1.182 0 1 0-1.673-1.672zM14.486 19.588l3.87 3.87a1.182 1.182 0 0 1-1.672 1.671l-3.87-3.869a1.182 1.182 0 1 1 1.672-1.672zM25.712 34.158l-3.87-3.87a1.182 1.182 0 0 1 1.673-1.671l3.87 3.869a1.182 1.182 0 1 1-1.673 1.672zM14.486 34.158l3.87-3.87a1.182 1.182 0 0 0-1.672-1.671l-3.87 3.869a1.182 1.182 0 1 0 1.672 1.672zM35.47 7.923v4.598c0 .635.44 1.15.985 1.15.544 0 .985-.515.985-1.15V7.923c0-.635-.441-1.15-.985-1.15s-.986.515-.986 1.15zM143.356 83.296v4.598c0 .635.367 1.15.82 1.15.454 0 .822-.515.822-1.15v-4.598c0-.635-.368-1.15-.821-1.15-.454 0-.821.515-.821 1.15z"/>
        <path fill="#004071" fill-rule="nonzero" d="M141.878 86.416h4.598c.635 0 1.15-.368 1.15-.821 0-.454-.515-.821-1.15-.821h-4.598c-.635 0-1.15.367-1.15.82 0 .454.515.822 1.15.822zM4.105 78.616v7.39c0 .68.368 1.23.821 1.23.454 0 .821-.55.821-1.23v-7.39c0-.68-.367-1.232-.82-1.232-.454 0-.822.552-.822 1.232z"/>
        <path fill="#004071" fill-rule="nonzero" d="M1.232 83.132h7.39c.68 0 1.23-.368 1.23-.821 0-.454-.55-.822-1.23-.822h-7.39c-.68 0-1.232.368-1.232.822 0 .453.551.82 1.232.82zM138.43 109.57a5.747 5.747 0 1 0 0-11.495 5.747 5.747 0 0 0 0 11.494zm0-1.643a4.105 4.105 0 1 1 0-8.21 4.105 4.105 0 0 1 0 8.21zM122.654 1.952c.245-1.232 2.071-1.235 2.321-.004 1.007 4.96 1.752 5.69 6.754 6.642 1.188.226 1.297 1.825.15 2.2-4.32 1.413-5.452 3.245-6.475 8.737l-.205 1.102c-.081.434-.152.799-.224 1.153-.25 1.227-2.07 1.227-2.32 0-.071-.35-.14-.707-.22-1.133l-.2-1.085c-1.022-5.515-2.155-7.36-6.484-8.774-1.148-.375-1.038-1.975.151-2.2 5.005-.947 5.771-1.703 6.752-6.638zm-4.758 7.892c3.55 1.552 4.91 3.895 5.92 9.244 1.012-5.352 2.368-7.691 5.92-9.245-3.633-.886-4.97-2.134-5.918-5.62-.935 3.474-2.287 4.734-5.922 5.62zM34.156 11.207h4.598c.635 0 1.15-.44 1.15-.985 0-.544-.515-.985-1.15-.985h-4.598c-.635 0-1.15.441-1.15.985s.515.985 1.15.985z"/>
        <circle cx="73.895" cy="69.789" r="56.447" fill="#FFF"/>
        <path fill="#004071" fill-rule="nonzero" d="M73.895 128.29c32.308 0 58.5-26.192 58.5-58.5 0-32.31-26.192-58.5-58.5-58.5-32.309 0-58.5 26.19-58.5 58.5 0 32.308 26.191 58.5 58.5 58.5zm0-4.106c-30.042 0-54.395-24.353-54.395-54.395 0-30.04 24.353-54.394 54.395-54.394 30.041 0 54.394 24.353 54.394 54.394 0 30.042-24.353 54.395-54.394 54.395z"/>
        <path fill="#004071" fill-rule="nonzero" d="M97.001 45.871l-18.97 17.571a2.053 2.053 0 0 0 2.79 3.012l18.97-17.571a2.053 2.053 0 0 0-2.79-3.012zM66.883 73.769l-4.318 3.999a2.053 2.053 0 1 0 2.79 3.011l4.317-3.999a2.053 2.053 0 1 0-2.79-3.011z"/>
        <path fill="#004071" fill-rule="nonzero" d="M73.895 79.026a9.237 9.237 0 1 0 0-18.473 9.237 9.237 0 0 0 0 18.473zm0-4.105a5.132 5.132 0 1 1 0-10.263 5.132 5.132 0 0 1 0 10.263z"/>
        <path stroke="#004071" stroke-linecap="round" stroke-width="4" d="M69.79 25.658c-9.94 2.31-18.618 7.494-24.904 14.523m-5.648 7.97c-.53.966-1.02 1.953-1.47 2.96"/>
        <path fill="#004071" fill-rule="nonzero" d="M71.842 3.079v8.21a2.053 2.053 0 1 0 4.105 0V3.08a2.053 2.053 0 1 0-4.105 0z"/>
        <path fill="#004071" fill-rule="nonzero" d="M59.681 4.636c4.674-.354 9.24-.53 13.7-.53 4.461 0 9.028.176 13.7.53a2.053 2.053 0 1 0 .311-4.093A185.542 185.542 0 0 0 73.382 0c-4.565 0-9.236.18-14.01.543a2.053 2.053 0 1 0 .31 4.093z"/>
    </g>
</svg>
