<svg xmlns="http://www.w3.org/2000/svg" width="22" height="24" viewBox="0 0 22 24">
    <path fill="#0D9DDB" fill-rule="nonzero" d="M10.406 2.217c-.617.018-1.159.065-1.625.139a.65.65 0 1 1-.204-1.284c.687-.11 1.497-.163 2.434-.163s1.748.054 2.435.163a.65.65 0 0 1-.205 1.284c-.443-.07-.955-.116-1.535-.136v.938c5.247.387 9.386 4.727 9.386 10.027 0 5.555-4.546 10.056-10.15 10.056-5.605 0-10.15-4.5-10.15-10.056 0-5.377 4.259-9.766 9.614-10.042v-.926zM12.55 12.59c.073.195.113.406.113.626 0 1.002-.826 1.808-1.838 1.808-.283 0-.552-.064-.792-.177l-.269.242a.65.65 0 0 1-.868-.968l.233-.209a1.778 1.778 0 0 1-.141-.696c0-1.002.826-1.808 1.837-1.808.311 0 .604.076.862.21l2.982-2.675a.65.65 0 0 1 .868.968l-2.987 2.68zm-1.725 1.134c.3 0 .538-.231.538-.508a.523.523 0 0 0-.538-.508c-.3 0-.537.231-.537.508s.237.508.537.508zm.117 8.218c4.889 0 8.85-3.921 8.85-8.756 0-4.834-3.961-8.755-8.85-8.755-4.89 0-8.85 3.921-8.85 8.755 0 4.835 3.96 8.756 8.85 8.756z"/>
</svg>
