<svg xmlns="http://www.w3.org/2000/svg" width="53" height="59" viewBox="0 0 53 59">
    <g fill="none" fill-rule="evenodd">
        <circle cx="26.5" cy="32.5" r="24.5" fill="#FFF"/>
        <path fill="#004071" fill-rule="nonzero" d="M27.5 0c2.08 0 4.21.08 6.385.24.666.05 1.164.594 1.111 1.217-.052.623-.635 1.088-1.3 1.04a84.448 84.448 0 0 0-6.196-.234l1 .006v3.577c0 .078-.008.154-.024.228C42.189 7.084 53 18.529 53 32.5 53 47.136 41.136 59 26.5 59S0 47.136 0 32.5C0 18.027 11.603 6.264 26.014 6.004l-.01-.078-.004-.08.001-3.569a85.997 85.997 0 0 0-4.696.22c-.666.048-1.249-.417-1.301-1.04-.053-.623.445-1.168 1.11-1.217A87.03 87.03 0 0 1 27.5 0zm-1 8.477C13.232 8.477 2.477 19.232 2.477 32.5c0 13.268 10.755 24.023 24.023 24.023 13.268 0 24.023-10.755 24.023-24.023 0-13.268-10.755-24.023-24.023-24.023zm11.655 13.045a1.25 1.25 0 0 1 .027 1.669l-.095.097-7.63 7.068a4.5 4.5 0 0 1-6.397 5.926l-1.507 1.395a1.25 1.25 0 0 1-1.794-1.736l.095-.098 1.563-1.449a4.5 4.5 0 0 1 6.284-5.82l7.687-7.12a1.25 1.25 0 0 1 1.767.068zM26.5 30.368a2.132 2.132 0 1 0 0 4.264 2.132 2.132 0 0 0 0-4.264zM9.234 22.33a1.25 1.25 0 0 1 .502 1.695c-.228.42-.44.848-.632 1.284a1.25 1.25 0 0 1-2.286-1.014c.22-.496.46-.984.721-1.464a1.25 1.25 0 0 1 1.695-.501zm14.687-9.628a1.25 1.25 0 0 1-.932 1.502c-4.267 1-8.054 3.24-10.816 6.354a1.25 1.25 0 0 1-1.87-1.659c3.106-3.502 7.349-6.012 12.116-7.13a1.25 1.25 0 0 1 1.502.933z"/>
    </g>
</svg>
