<svg xmlns="http://www.w3.org/2000/svg" width="221" height="108" viewBox="0 0 221 108">
    <path fill="#FFF" fill-rule="nonzero" d="M102.532 59.772c-.736.068-1.483.175-2.24.32a1.846 1.846 0 0 1-.7-3.624 25.528 25.528 0 0 1 4.844-.477c1.584 0 3.199.16 4.845.477a1.846 1.846 0 0 1-.7 3.625 22.889 22.889 0 0 0-2.357-.332v2.465c11.797.94 21.077 10.811 21.077 22.85 0 12.66-10.263 22.924-22.923 22.924-12.66 0-22.923-10.263-22.923-22.924 0-12.039 9.28-21.91 21.077-22.85v-2.454zm5.211 24.697a3.499 3.499 0 0 1-4.336 4.31l-2.083 2.07c-.62.617-1.63.605-2.255-.025a1.598 1.598 0 0 1-.008-2.258l2.013-2.001a3.496 3.496 0 0 1 4.47-4.443l4.745-4.716a1.593 1.593 0 0 1 2.254.026c.625.63.629 1.641.009 2.257l-4.809 4.78zM40.685 34.456h5.66c6.707 0 12.183-3.876 12.183-12.613S53.052 9.168 46.346 9.168h-5.66v25.288zm6.03 9.168H30.964V0h15.813C59.882 0 68.68 8.368 68.68 21.843s-8.799 21.781-21.966 21.781zm55.645 0l-3.138-8.86H82.363l-3.138 8.86H69.011L85.44 0H96.7l16.244 43.624H102.36zM90.915 10.83l-5.352 15.075h10.582l-5.23-15.075zm56.322-1.538h-13.475v34.333h-9.721V9.291h-13.413V0h36.609v9.29zm31.033 34.333l-3.138-8.86h-16.858l-3.138 8.86h-10.214L161.35 0h11.26l16.243 43.624H178.27zM166.826 10.83l-5.353 15.075h10.583l-5.23-15.075zm-11.723 96.478c-12.551 0-22.642-9.045-22.642-22.643s10.337-22.827 22.52-22.827c13.105 0 18.888 8.43 20.304 14.705l-9.168 2.892c-.677-3.015-3.446-8.122-11.137-8.122-5.845 0-12.428 4.184-12.428 13.352 0 8.183 6.03 12.921 12.551 12.921 7.568 0 10.583-5.045 11.445-8.183l9.29 2.646c-1.415 6.03-7.198 15.259-20.735 15.259zm53.776-.923l-11.752-17.167-4.922 5.476v11.69h-9.722V62.76h9.722v18.335L208.14 62.76h12.797l-16.981 18.89L221 106.383h-12.121zm-104.5-7.274c7.75 0 14.033-6.283 14.033-14.034 0-7.75-6.283-14.033-14.034-14.033-7.75 0-14.033 6.283-14.033 14.033 0 7.751 6.283 14.034 14.033 14.034zm-1.886-26.06a1.099 1.099 0 1 1 .443 2.153 10.833 10.833 0 0 0-6.322 3.942 1.099 1.099 0 1 1-1.735-1.35 13.03 13.03 0 0 1 7.614-4.744zm-9.319 7.44a1.099 1.099 0 1 1 1.974.966c-.137.28-.264.564-.38.853a1.099 1.099 0 1 1-2.04-.815c.136-.34.285-.676.446-1.005zm-70.532 26.817C10.091 107.307 0 98.262 0 84.664s10.337-22.827 22.52-22.827c13.105 0 18.888 8.43 20.304 14.705l-9.168 2.892c-.677-3.015-3.446-8.122-11.137-8.122-5.845 0-12.428 4.184-12.428 13.352 0 8.183 6.03 12.921 12.551 12.921 7.568 0 10.583-5.045 11.445-8.183l9.29 2.646c-1.415 6.03-7.198 15.259-20.735 15.259zm55.93-.923h-28.55V62.76h9.722v34.333H78.57v9.29z"/>
</svg>
