<?xml version="1.0" encoding="UTF-8"?>
<svg width="20px" height="20px" viewBox="0 0 20 20" version="1.1" xmlns="http://www.w3.org/2000/svg" xmlns:xlink="http://www.w3.org/1999/xlink">
    <!-- Generator: sketchtool 55.2 (78181) - https://sketchapp.com -->
    <title>64A6962A-CA2D-4D40-A522-D2FE731E5351</title>
    <desc>Created with sketchtool.</desc>
    <g id="Stylesheets" stroke="none" stroke-width="1" fill="none" fill-rule="evenodd">
        <g id="2degrees_data_clock_assets" transform="translate(-41.000000, -872.000000)" fill="#FF8C6C">
            <g id="ic_loginerror" transform="translate(41.000000, 872.000000)">
                <path d="M10,20 C4.4771525,20 0,15.5228475 0,10 C0,4.4771525 4.4771525,0 10,0 C15.5228475,0 20,4.4771525 20,10 C20,15.5228475 15.5228475,20 10,20 Z M11,5 L9,5 L9.39751553,11.8758717 L10.6024845,11.8758717 L11,5 Z M9.02484472,13.8981869 C9.02484472,14.511855 9.45962733,15 9.99378882,15 C10.5403727,15 10.9875776,14.511855 10.9875776,13.8981869 C10.9875776,13.2845188 10.5403727,12.7824268 9.99378882,12.7824268 C9.45962733,12.7824268 9.02484472,13.2845188 9.02484472,13.8981869 Z"></path>
            </g>
        </g>
    </g>
</svg>