<svg xmlns="http://www.w3.org/2000/svg" width="26" height="26" viewBox="0 0 26 26">
    <g fill="none" fill-rule="evenodd" transform="translate(1 1)">
        <circle cx="12" cy="12" r="12" stroke="#FFF" opacity=".7"/>
        <path fill="#FFF" d="M7.177 7.175a.596.596 0 0 0 0 .847L11.154 12l-3.977 3.977a.596.596 0 0 0 0 .847.596.596 0 0 0 .847 0L12 12.846l3.977 3.977a.596.596 0 0 0 .847 0 .596.596 0 0 0 0-.847L12.848 12l3.977-3.977a.596.596 0 0 0 0-.847.596.596 0 0 0-.847 0L12 11.152 8.024 7.175a.6.6 0 0 0-.847 0z"/>
    </g>
</svg>
