<svg xmlns="http://www.w3.org/2000/svg" width="100" height="93" viewBox="0 0 100 93">
    <path fill="#FFF" fill-rule="nonzero" d="M13.23 30.87h.777a1 1 0 1 1 0 2h-.776v.87a1 1 0 1 1-2 0v-.87h-.723a1 1 0 1 1 0-2h.723V30a1 1 0 1 1 2 0v.87zm74.642 2.638h.776a1 1 0 1 1 0 2h-.776v.87a1 1 0 1 1-2 0v-.87h-.723a1 1 0 1 1 0-2h.723v-.87a1 1 0 1 1 2 0v.87zM10.12 45.658a1 1 0 0 1 1.414 1.414l-2.808 2.805a1 1 0 1 1-1.414-1.414l2.808-2.806zm-7.945 0l2.807 2.805a1 1 0 0 1-1.413 1.414L.76 47.072a1 1 0 1 1 1.414-1.415zm7.945 10.765l-2.808-2.805a1 1 0 0 1 1.414-1.415l2.808 2.805a1 1 0 1 1-1.414 1.415zm-7.945 0A1 1 0 1 1 .76 55.008l2.808-2.805a1 1 0 0 1 1.413 1.415l-2.807 2.805zM98.617 79.81a.75.75 0 0 1 1.06 1.062l-2.042 2.04a.75.75 0 0 1-1.06-1.061l2.042-2.04zm-5.747 0l2.042 2.04a.75.75 0 0 1-1.06 1.062l-2.042-2.04a.75.75 0 1 1 1.06-1.062zm5.747 7.862l-2.042-2.04a.75.75 0 1 1 1.06-1.06l2.042 2.04a.75.75 0 0 1-1.06 1.06zm-5.747 0a.75.75 0 1 1-1.06-1.06l2.042-2.04a.75.75 0 0 1 1.06 1.06l-2.042 2.04zM73.25 38.527C79.833 44.212 84 52.62 84 62c0 17.12-13.88 31-31 31-17.12 0-31-13.88-31-31 0-9.38 4.167-17.788 10.75-23.473V21.004C32.75 9.818 41.816.75 53 .75s20.25 9.068 20.25 20.254v17.523zm-2.5-1.946V21.004C70.75 11.199 62.803 3.25 53 3.25s-17.75 7.949-17.75 17.754v15.577A30.858 30.858 0 0 1 53 31a30.858 30.858 0 0 1 17.75 5.581zM53 90.5c15.74 0 28.5-12.76 28.5-28.5S68.74 33.5 53 33.5 24.5 46.26 24.5 62 37.26 90.5 53 90.5zM53 72c-5.523 0-10-4.477-10-10s4.477-10 10-10 10 4.477 10 10-4.477 10-10 10zm0-2.5a7.5 7.5 0 1 0 0-15 7.5 7.5 0 0 0 0 15zm38.083-50.824a3.339 3.339 0 1 1 3.34-3.338 3.339 3.339 0 0 1-3.34 3.338zm0-2a1.339 1.339 0 1 0 .002-2.678 1.339 1.339 0 0 0-.002 2.678zM69.001 74a5 5 0 0 1 3.767-8.942 20.155 20.155 0 0 0 0-6.118A5 5 0 0 1 69 50a20.117 20.117 0 0 0-4-4 5 5 0 0 1-8.942-3.767 20.155 20.155 0 0 0-6.118 0A5 5 0 0 1 41 46a20.117 20.117 0 0 0-4 4 5 5 0 0 1-3.767 8.942 20.155 20.155 0 0 0 0 6.118A5 5 0 0 1 37 74a20.117 20.117 0 0 0 4 4 5 5 0 0 1 8.942 3.767 20.155 20.155 0 0 0 6.118 0A5 5 0 0 1 65 78a20.117 20.117 0 0 0 4-4zM53 84c-12.15 0-22-9.85-22-22s9.85-22 22-22 22 9.85 22 22-9.85 22-22 22z"/>
</svg>
