<svg xmlns="http://www.w3.org/2000/svg" width="36" height="46" viewBox="0 0 36 46">
    <path fill="#FEFEFE" fill-rule="evenodd" d="M32.044 13.552a5.647 5.647 0 0 1-.853.356c-.131.039-1.244.382-2.155.663l-.07.021-.023.01-2.4.731c1.643-1.7 2.44-4.385 2.052-7.076-.473-3.28-2.442-5.845-4.868-6.84 1.85-.22 3.774-.444 4.762-.562l.094-.01a5.34 5.34 0 0 1 .61-.038c1.565 0 3.06.739 4.21 2.08a7.527 7.527 0 0 1 1.779 4.834c0 3.994-2.614 5.558-3.138 5.831zm-5.92 9.875c-1.661 2.131-6.62 8.346-6.834 8.613l-.079.099-6.938 3.37c1.41-1.877 5.615-7.396 6.587-8.704 1.332-1.792 3.085-5.07 2.506-9.926a5.374 5.374 0 0 0 2.487-.105l.012-.003.018-.005c.072-.02.144-.042.215-.065l4.532-1.368c.089 3.12-.753 5.841-2.507 8.094zm.086 10.012c.889.154 1.717.673 2.331 1.462.58.744.912 1.653.912 2.495v.427c.001.737.002 2.11 0 2.35 0 .09-.022.211-.12.27a853.319 853.319 0 0 1-6.777 3.943c0-.704.015-1.978.003-2.666-.038-2.14-1.75-4.439-3.92-4.856-1.476-.284-4.937-.958-6.366-1.237l7.177-3.346.093.015c1.415.241 4.896.836 6.667 1.143zM11.455 3.842l4.909-.614a8.135 8.135 0 0 0-1.16 2.421c-1.263-.878-2.523-1.464-3.75-1.807zM5.993 17.754a3.015 3.015 0 0 1-.084-.27c-.934-3.904 1.944-5.55 3.785-5.365 2.04.206 3.766 1.784 4.215 3.719l-7.916 1.916zM20.917 6.466c1.254-.128 2.57.98 2.78 2.543.2 1.51-.593 2.922-2.078 3.085-1.236.136-2.562-1.017-2.77-2.558-.209-1.54.673-2.927 2.068-3.07zm13.09-4.17C32.69.816 30.968 0 29.156 0a6.41 6.41 0 0 0-.71.042l-.095.01c-1.569.18-5.457.618-7.753.892h-.004c-1.376.176-2.573.825-3.504 1.786L8.48 3.82c-3.57.306-6.744 2.67-7.814 6.197-1.151 3.791.293 8.33 3.853 9.147.491.112.877.04 1.101-.029l.01-.001 7.997-2.15a5.114 5.114 0 0 1-.54 2.618c-.667 1.337-2.963 4.528-3.74 5.635-.78 1.106-7.913 11.592-8.973 13.33-.25.407-.475 1.02-.329 1.563.131.482.575.915 1.23 1.08 2.432.612 19.814 4.644 20.333 4.767.201.047.382.02.528-.061l.009-.005c.644-.375 5.177-3.047 7.5-4.451.3-.182.473-.51.476-.897.002-.247.001-1.644 0-2.395v-.434c0-1.01-.386-2.096-1.057-2.976-.727-.953-1.717-1.581-2.79-1.771-1.623-.288-4.688-.822-6.263-1.097 1.143-1.398 5.21-6.375 6.697-8.238 1.944-2.436 2.859-5.38 2.718-8.754 1.501-.447 1.905-.566 1.974-.586.351-.102.757-.28.998-.401.602-.303 3.601-2.032 3.601-6.383a7.982 7.982 0 0 0-1.994-5.232z"/>
</svg>
