<svg xmlns="http://www.w3.org/2000/svg" width="77" height="93" viewBox="0 0 77 93">
    <path fill="#FFF" fill-rule="nonzero" d="M70.426 88.93h.67c.607 0 1.099.493 1.099 1.103s-.492 1.104-1.099 1.104h-.67v.764c0 .607-.494 1.099-1.104 1.099-.61 0-1.104-.492-1.104-1.099v-.764h-.617a1.101 1.101 0 0 1-1.099-1.104c0-.61.492-1.104 1.099-1.104h.617v-.764c0-.607.494-1.099 1.104-1.099.61 0 1.104.492 1.104 1.099v.764zM13.008 1.862h.67c.607 0 1.1.494 1.1 1.104 0 .61-.493 1.104-1.1 1.104h-.67v.764c0 .607-.494 1.099-1.104 1.099-.61 0-1.104-.492-1.104-1.099v-.764h-.617a1.101 1.101 0 0 1-1.099-1.104c0-.61.492-1.104 1.1-1.104h.616V1.1C10.8.492 11.295 0 11.904 0c.61 0 1.104.492 1.104 1.099v.764zm12.046 7.323h29.11c3.633 0 6.577 2.93 6.577 6.546v63.824c0 3.615-2.944 6.546-6.576 6.546h-29.11c-3.632 0-6.577-2.93-6.577-6.546V15.732c0-3.615 2.945-6.546 6.576-6.546zm0 2.197c-2.412 0-4.368 1.947-4.368 4.349v63.824c0 2.402 1.956 4.349 4.368 4.349h29.11c2.413 0 4.37-1.947 4.37-4.349V15.732c0-2.402-1.957-4.349-4.37-4.349h-29.11zm7.925 3.857H46.15c.779 0 1.442.484 1.442 1.043 0 .564-.669 1.044-1.442 1.044H32.979c-.78 0-1.442-.484-1.442-1.044 0-.563.668-1.043 1.442-1.043zm6.791 34.986c-2.272 0-4.114-1.834-4.114-4.096s1.842-4.095 4.114-4.095c2.273 0 4.115 1.833 4.115 4.095 0 2.262-1.842 4.096-4.115 4.096zm0-2.198c1.053 0 1.907-.85 1.907-1.898a1.902 1.902 0 0 0-1.907-1.898c-1.053 0-1.906.85-1.906 1.898s.853 1.898 1.906 1.898zm0 12.187c-2.272 0-4.114-1.834-4.114-4.096s1.842-4.095 4.114-4.095c2.273 0 4.115 1.833 4.115 4.095 0 2.262-1.842 4.096-4.115 4.096zm0-2.198c1.053 0 1.907-.85 1.907-1.898a1.902 1.902 0 0 0-1.907-1.898c-1.053 0-1.906.85-1.906 1.898s.853 1.898 1.906 1.898zm0 12.187c-2.272 0-4.114-1.834-4.114-4.096 0-2.261 1.842-4.095 4.114-4.095 2.273 0 4.115 1.834 4.115 4.095 0 2.262-1.842 4.096-4.115 4.096zm0-2.198c1.053 0 1.907-.85 1.907-1.898a1.902 1.902 0 0 0-1.907-1.898c-1.053 0-1.906.85-1.906 1.898 0 1.049.853 1.898 1.906 1.898zm0 12.187c-2.272 0-4.114-1.834-4.114-4.095 0-2.262 1.842-4.096 4.114-4.096 2.273 0 4.115 1.834 4.115 4.096 0 2.261-1.842 4.095-4.115 4.095zm0-2.198c1.053 0 1.907-.85 1.907-1.897A1.902 1.902 0 0 0 39.77 74.2c-1.053 0-1.906.85-1.906 1.898s.853 1.897 1.906 1.897zm10.897-27.77c-2.272 0-4.114-1.833-4.114-4.095 0-2.262 1.842-4.095 4.114-4.095 2.273 0 4.115 1.833 4.115 4.095 0 2.262-1.842 4.096-4.115 4.096zm0-2.197c1.053 0 1.907-.85 1.907-1.898a1.902 1.902 0 0 0-1.907-1.898c-1.053 0-1.906.85-1.906 1.898s.853 1.898 1.906 1.898zm0 12.187c-2.272 0-4.114-1.834-4.114-4.096s1.842-4.095 4.114-4.095c2.273 0 4.115 1.833 4.115 4.095 0 2.262-1.842 4.096-4.115 4.096zm0-2.198c1.053 0 1.907-.85 1.907-1.898a1.902 1.902 0 0 0-1.907-1.898c-1.053 0-1.906.85-1.906 1.898s.853 1.898 1.906 1.898zm0 12.187c-2.272 0-4.114-1.834-4.114-4.096 0-2.261 1.842-4.095 4.114-4.095 2.273 0 4.115 1.834 4.115 4.095 0 2.262-1.842 4.096-4.115 4.096zm0-2.198c1.053 0 1.907-.85 1.907-1.898a1.902 1.902 0 0 0-1.907-1.898c-1.053 0-1.906.85-1.906 1.898 0 1.049.853 1.898 1.906 1.898zm-21.793-17.78c-2.273 0-4.115-1.834-4.115-4.096s1.842-4.095 4.115-4.095c2.272 0 4.114 1.833 4.114 4.095 0 2.262-1.842 4.096-4.114 4.096zm0-2.198c1.053 0 1.906-.85 1.906-1.898a1.902 1.902 0 0 0-1.906-1.898c-1.053 0-1.907.85-1.907 1.898s.854 1.898 1.907 1.898zm0 12.187c-2.273 0-4.115-1.834-4.115-4.096s1.842-4.095 4.115-4.095c2.272 0 4.114 1.833 4.114 4.095 0 2.262-1.842 4.096-4.114 4.096zm0-2.198c1.053 0 1.906-.85 1.906-1.898a1.902 1.902 0 0 0-1.906-1.898c-1.053 0-1.907.85-1.907 1.898s.854 1.898 1.907 1.898zm0 12.187c-2.273 0-4.115-1.834-4.115-4.096 0-2.261 1.842-4.095 4.115-4.095 2.272 0 4.114 1.834 4.114 4.095 0 2.262-1.842 4.096-4.114 4.096zm0-2.198c1.053 0 1.906-.85 1.906-1.898a1.902 1.902 0 0 0-1.906-1.898c-1.053 0-1.907.85-1.907 1.898 0 1.049.854 1.898 1.907 1.898zm44.674 6.312a3.443 3.443 0 0 1-3.452-3.434 3.443 3.443 0 0 1 3.452-3.434A3.443 3.443 0 0 1 77 70.884a3.443 3.443 0 0 1-3.452 3.434zm0-2.198a1.24 1.24 0 0 0 1.244-1.236 1.24 1.24 0 0 0-1.244-1.237 1.24 1.24 0 0 0-1.244 1.237 1.24 1.24 0 0 0 1.244 1.236zM9.715 16.668a1.107 1.107 0 0 1 1.561.001c.431.43.431 1.125 0 1.554l-2.818 2.802a1.107 1.107 0 0 1-1.56 0 1.095 1.095 0 0 1 0-1.554l2.817-2.803zm-7.83 0l2.817 2.803a1.095 1.095 0 0 1 0 1.554c-.43.429-1.13.43-1.56 0L.323 18.223a1.095 1.095 0 0 1-.001-1.554c.43-.43 1.13-.43 1.561 0zm7.83 10.896l-2.817-2.802a1.095 1.095 0 0 1 0-1.554c.43-.43 1.129-.43 1.56-.001l2.818 2.802a1.095 1.095 0 0 1 0 1.554c-.43.43-1.13.43-1.56 0zm-7.83 0a1.107 1.107 0 0 1-1.562 0 1.095 1.095 0 0 1 0-1.555l2.818-2.802a1.107 1.107 0 0 1 1.561 0c.431.43.43 1.126 0 1.555l-2.818 2.802zm13.25 52.702a.951.951 0 0 1-.954.95.951.951 0 0 1-.953-.95V61.794c0-.524.427-.95.953-.95.527 0 .954.426.954.95v18.472zm0-21.66a.951.951 0 0 1-.954.949.951.951 0 0 1-.953-.95v-.138c0-.524.427-.95.953-.95.527 0 .954.426.954.95v.139z"/>
</svg>
