<svg xmlns="http://www.w3.org/2000/svg" width="74" height="65" viewBox="0 0 74 65">
    <path fill="#8D8D8D" fill-rule="nonzero" d="M27.542 6.31c2.084 0 4.215.08 6.394.24.667.048 1.166.59 1.113 1.21-.052.62-.636 1.083-1.303 1.034a86.2 86.2 0 0 0-5.19-.226h-.013v3.558c0 .077-.008.153-.024.226C42.252 13.356 53.08 24.742 53.08 38.64 53.08 53.198 41.198 65 26.54 65S0 53.198 0 38.64c0-14.397 11.62-26.098 26.052-26.357l-.01-.077-.003-.08.002-3.55a86.71 86.71 0 0 0-4.704.218c-.667.049-1.25-.414-1.303-1.034-.052-.62.446-1.162 1.113-1.21 2.179-.16 4.31-.24 6.395-.24zm-1.002 8.433c-13.288 0-24.06 10.699-24.06 23.897 0 13.197 10.772 23.896 24.06 23.896 13.288 0 24.06-10.699 24.06-23.896 0-13.198-10.772-23.897-24.06-23.897zm11.638 12.976a1.25 1.25 0 0 1 .033 1.666l-.094.097-7.603 7.045c.34.629.533 1.348.533 2.113 0 2.472-2.018 4.476-4.507 4.476-.9 0-1.738-.262-2.442-.714l-1.504 1.393a1.247 1.247 0 0 1-1.763-.073 1.25 1.25 0 0 1-.032-1.666l.094-.098 1.555-1.44a4.434 4.434 0 0 1-.415-1.878c0-2.473 2.018-4.477 4.507-4.477.805 0 1.562.21 2.216.578l7.66-7.096a1.248 1.248 0 0 1 1.762.074zm-11.638 8.8c-1.179 0-2.135.95-2.135 2.12 0 1.172.956 2.12 2.135 2.12 1.179 0 2.135-.948 2.135-2.12 0-1.17-.956-2.12-2.135-2.12zM9.248 28.523a1.24 1.24 0 0 1 .503 1.686c-.229.418-.44.844-.634 1.277-.28.628-1.02.911-1.651.633a1.24 1.24 0 0 1-.637-1.64c.22-.495.46-.98.721-1.457a1.256 1.256 0 0 1 1.698-.5zm14.709-9.578a1.243 1.243 0 0 1-.933 1.495c-4.273.994-8.067 3.223-10.832 6.32-.46.514-1.25.561-1.768.106a1.238 1.238 0 0 1-.106-1.756c3.111-3.483 7.36-5.98 12.135-7.092a1.252 1.252 0 0 1 1.504.927zM54.825 0v2.053l-6.009 7.13h6.09v2.101h-8.942V9.152l5.913-7.067h-5.705V0h8.653zm11.066 2.116v1.668l-4.883 5.793h4.948v1.707H58.69V9.551l4.804-5.741H58.86V2.116h7.03zm8.064 2.82v1.156l-3.38 4.01H74v1.182h-5.03v-1.2l3.326-3.974h-3.208V4.937h4.867zM27.542 8.563l1.001.006-1.001-.006z"/>
</svg>
