<?xml version="1.0" encoding="UTF-8"?>
<svg width="67px" height="70px" viewBox="0 0 67 70" version="1.1" xmlns="http://www.w3.org/2000/svg" xmlns:xlink="http://www.w3.org/1999/xlink">
    <!-- Generator: sketchtool 55.2 (78181) - https://sketchapp.com -->
    <title>23284AB6-19F6-4139-B4D7-0A5DDD6FC2AB</title>
    <desc>Created with sketchtool.</desc>
    <g id="Stylesheets" stroke="none" stroke-width="1" fill="none" fill-rule="evenodd">
        <g id="2degrees_data_clock_assets" transform="translate(-40.000000, -677.000000)" fill="#00A7E5">
            <g id="ic_thumbsdown" transform="translate(40.000000, 677.000000)">
                <g id="Illustrations/thumbsdown">
                    <g id="ic_thumbsdown">
                        <path d="M7.75438462,6.356 C7.79028205,6.44574359 7.83515385,6.53548718 7.889,6.62523077 C7.95182051,6.706 8.01464103,6.78676923 8.0864359,6.8585641 C8.37361538,7.13676923 8.76848718,7.30728205 9.17233333,7.30728205 C9.57617949,7.30728205 9.97105128,7.13676923 10.2582308,6.8585641 C10.3210513,6.78676923 10.3928462,6.706 10.4466923,6.62523077 C10.5014359,6.53548718 10.5454103,6.44574359 10.5902821,6.356 C10.6261795,6.26625641 10.6531026,6.16753846 10.6800256,6.06882051 C10.6979744,5.97010256 10.7069487,5.87138462 10.7069487,5.77266667 C10.7069487,5.66497436 10.6979744,5.56625641 10.6800256,5.46753846 C10.6531026,5.36882051 10.6261795,5.27010256 10.5902821,5.18035897 C10.5454103,5.09061538 10.5014359,5.00087179 10.4466923,4.92010256 C10.3928462,4.83035897 10.3210513,4.74958974 10.2582308,4.68676923 C9.68387179,4.11241026 8.66079487,4.11241026 8.0864359,4.68676923 C8.01464103,4.74958974 7.95182051,4.83035897 7.889,4.92010256 C7.83515385,5.00087179 7.79028205,5.09061538 7.75438462,5.18035897 C7.70951282,5.27010256 7.68258974,5.36882051 7.66464103,5.46753846 C7.64669231,5.56625641 7.63771795,5.66497436 7.63771795,5.77266667 C7.63771795,5.87138462 7.64669231,5.97010256 7.66464103,6.06882051 C7.68258974,6.16753846 7.70951282,6.26625641 7.75438462,6.356" id="Fill-1"></path>
                        <path d="M4.68524359,7.30728205 C5.08908974,7.30728205 5.48396154,7.13676923 5.77114103,6.8585641 C6.05024359,6.57138462 6.21985897,6.17651282 6.21985897,5.77266667 C6.21985897,5.35984615 6.05024359,4.96497436 5.77114103,4.68676923 C5.19678205,4.11241026 4.16473077,4.11241026 3.59934615,4.68676923 C3.52755128,4.7585641 3.46473077,4.83035897 3.40191026,4.92010256 C3.3480641,5.00087179 3.30319231,5.09061538 3.26729487,5.18035897 C3.22242308,5.27010256 3.1955,5.36882051 3.17755128,5.46753846 C3.15960256,5.56625641 3.14165385,5.66497436 3.14165385,5.77266667 C3.14165385,6.17651282 3.31216667,6.57138462 3.59934615,6.8585641 C3.87755128,7.13676923 4.28139744,7.30728205 4.68524359,7.30728205" id="Fill-3"></path>
                        <path d="M66.7704872,27.5193333 C66.7704872,25.1240769 65.4907436,23.0267692 63.5836923,21.8574103 C64.8930513,20.6431795 65.7186923,18.9147179 65.7186923,16.9924103 C65.7186923,13.7984359 63.4517692,11.1249744 60.4426667,10.4922821 C61.1615128,9.43061538 61.5824103,8.15176923 61.5824103,6.776 C61.5824103,3.1135641 58.6011282,0.133179487 54.9377949,0.133179487 L45.5963846,0.133179487 L36.4075385,0.0398461538 C35.9974103,0.0398461538 35.5612564,0.0308717949 35.1035641,0.021 C31.4474103,-0.0543846154 26.0071538,-0.156692308 22.1643333,4.23446154 L13.656641,4.23446154 C12.8094615,4.23446154 12.1211282,4.921 12.1211282,5.76907692 C12.1211282,6.61715385 12.8094615,7.30458974 13.656641,7.30458974 L22.8742051,7.30458974 C22.9872821,7.30458974 23.0958718,7.29023077 23.2017692,7.26779487 C23.2295897,7.26151282 23.2565128,7.24984615 23.2843333,7.24176923 C23.3615128,7.22023077 23.4368974,7.196 23.5086923,7.16369231 C23.5436923,7.14753846 23.5768974,7.12689744 23.611,7.10805128 C23.6729231,7.07394872 23.7330513,7.03715385 23.7886923,6.99497436 C23.8227949,6.97074359 23.8533077,6.94471795 23.8847179,6.91689744 C23.940359,6.86753846 23.9915128,6.81458974 24.0399744,6.75805128 C24.0552308,6.73920513 24.0758718,6.72574359 24.0902308,6.706 C27.0033077,2.92151282 31.4572821,3.01215385 35.0398462,3.09023077 C35.5172821,3.10010256 35.9740769,3.10997436 36.3877949,3.10997436 L36.3913846,3.10997436 L44.5840769,3.1934359 C44.6172821,3.19523077 44.6495897,3.20330769 44.6836923,3.20330769 L54.9377949,3.20330769 C56.9085641,3.20330769 58.5113846,4.80612821 58.5113846,6.776 C58.5113846,8.74676923 56.9085641,10.3495897 54.9377949,10.3495897 L53.6589487,10.3495897 C52.8108718,10.3495897 52.1234359,11.0361282 52.1234359,11.8842051 C52.1234359,12.7322821 52.8108718,13.4197179 53.6589487,13.4197179 L54.9377949,13.4197179 C55.2258718,13.4197179 55.5076667,13.3945897 55.7858718,13.3586923 C55.9151026,13.3945897 56.0488205,13.4197179 56.1888205,13.4197179 L59.0749744,13.4197179 C61.0448462,13.4197179 62.6476667,15.0225385 62.6476667,16.9924103 C62.6476667,18.9631795 61.0448462,20.566 59.0749744,20.566 L56.1888205,20.566 C55.6674103,20.566 55.2079231,20.8271538 54.9315128,21.2247179 C54.5842051,21.5056154 54.3580513,21.9301026 54.3580513,22.4111282 C54.3580513,23.2592051 55.0463846,23.946641 55.8935641,23.946641 L60.1267692,23.946641 C62.096641,23.946641 63.6994615,25.5494615 63.6994615,27.5193333 C63.6994615,29.4892051 62.096641,31.0920256 60.1267692,31.0920256 L55.8935641,31.0920256 C55.0463846,31.0920256 54.3580513,31.7794615 54.3580513,32.6275385 C54.3580513,33.2485641 54.7286923,33.7807436 55.2599744,34.0221538 C55.510359,34.2007436 55.8154872,34.3075385 56.146641,34.3075385 L56.6707436,34.3075385 C58.6406154,34.3075385 60.2434359,35.9112564 60.2434359,37.8811282 C60.2434359,39.8518974 58.6406154,41.4547179 56.6707436,41.4547179 L40.3813846,41.4547179 C38.8638205,41.4547179 37.5257436,42.0820256 36.7099744,43.1751026 C35.8942051,44.2690769 35.6734359,45.7301026 36.1051026,47.1830513 C36.1158718,47.2207436 36.1284359,47.256641 36.1418974,47.2925385 L38.9679231,54.7062564 C39.9999744,58.2520256 39.3125385,62.1370256 37.1245897,65.1120256 C36.5277949,65.9233077 35.5774103,66.3029231 34.5875385,66.1315128 C33.600359,65.9592051 32.8402308,65.2825385 32.5494615,64.301641 L26.1363846,43.7449744 C26.0484359,43.4111282 25.8492051,43.1033077 25.5485641,42.8852308 C25.5449744,42.8834359 25.5431795,42.8807436 25.5395897,42.8789487 C22.4326667,40.6461282 19.9979231,36.0943333 19.4818974,31.5497179 L18.9156154,26.5563846 C18.8195897,25.7145897 18.0558718,25.1070256 17.2176667,25.2039487 C16.3749744,25.2999744 15.7701026,26.0601026 15.8652308,26.9027949 L15.8912564,27.1289487 L1.53587179,27.1289487 C0.687794872,27.1289487 0.000358974359,27.8163846 0.000358974359,28.6644615 C0.000358974359,29.5125385 0.687794872,30.1990769 1.53587179,30.1990769 L16.2394615,30.1990769 L16.4315128,31.8952308 C17.0256154,37.1308718 19.7098462,42.2283077 23.3292051,45.0579231 L29.6130513,65.1945897 C30.226,67.2658718 31.9302308,68.7834359 34.0589487,69.1558718 C34.3901026,69.2133077 34.7212564,69.2420256 35.0488205,69.2420256 C36.8311282,69.2420256 38.5138205,68.4047179 39.5979231,66.9320256 C42.3629231,63.1717692 43.2217692,58.2556154 41.8944615,53.7792051 C41.8845897,53.7424103 41.8720256,53.7056154 41.8576667,53.6697179 L39.0343333,46.2595897 C38.8952308,45.7570256 38.9436923,45.3154872 39.1698462,45.0112564 C39.4049744,44.6980513 39.8339487,44.5248462 40.3813846,44.5248462 L56.6707436,44.5248462 C60.3331795,44.5248462 63.3135641,41.5444615 63.3135641,37.8811282 C63.3135641,36.3851026 62.811,35.0075385 61.9727949,33.8956154 C64.7395897,33.0933077 66.7704872,30.541 66.7704872,27.5193333" id="Fill-5"></path>
                    </g>
                </g>
            </g>
        </g>
    </g>
</svg>