<svg xmlns="http://www.w3.org/2000/svg" width="42" height="42" viewBox="0 0 42 42">
    <path fill="#FFF" fill-rule="nonzero" d="M21 41.1C9.9 41.1.9 32.1.9 21 .9 9.9 9.9.9 21 .9c11.1 0 20.1 9 20.1 20.1 0 11.1-9 20.1-20.1 20.1zm0-2.2c9.886 0 17.9-8.014 17.9-17.9S30.886 3.1 21 3.1 3.1 11.114 3.1 21 11.114 38.9 21 38.9zm1.96-27.752l-.784 13.972h-2.352l-.812-13.972h3.948zm-4.004 18.004c0-1.12.896-2.072 2.016-2.072 1.148 0 2.072.952 2.072 2.072s-.924 2.044-2.072 2.044c-1.12 0-2.016-.924-2.016-2.044z"/>
</svg>
